# xmcd
# Copyright (C) 1995-1998 Ti Kan
#
# Track frame offsets:
#       150
#       19092
#       36410
#       50977
#       74115
#       88320
#       104772
#       119125
#       134405
#       162970
#       183305
#
# Disc length: 2666 seconds
#
# Revision: 0
# Processed by: cddbd v1.5.2PL0 Copyright (c) Steve Scherf et al.
# Submitted via: CD-Import v1.0
#
DISCID=b30a680b
DTITLE=Death Cab For Cutie - Plans
DYEAR=2005
DGENRE=
TTITLE0=Marching Bands Of Manhattan
TTITLE1=Soul Meets Body
TTITLE2=Summer Skin
TTITLE3=Different Names For The Same Thing
TTITLE4=I Will Follow You Into The Dark
TTITLE5=Your Heart Is An Empty Room
TTITLE6=Someday You Will Be Loved
TTITLE7=Crooked Teeth
TTITLE8=What Sarah Said
TTITLE9=Brothers On A Hotel Bed
TTITLE10=Stable Song
EXTD=
EXTT0=
EXTT1=
EXTT2=
EXTT3=
EXTT4=
EXTT5=
EXTT6=
EXTT7=
EXTT8=
EXTT9=
EXTT10=
PLAYORDER=
